<svg width="258" height="258" viewBox="0 0 258 258" fill="none" xmlns="http://www.w3.org/2000/svg">
<path d="M0 86H86V0H0V86ZM14.3319 14.3319H71.6638V71.6638H14.3319V14.3319ZM28.6638 28.6638H57.3319V57.3319H28.6638V28.6638ZM171.996 85.9957H257.996V0H171.996V86V85.9957ZM186.328 14.3276H243.66V71.6595H186.328V14.3319V14.3276ZM200.66 28.6595H229.328V57.3276H200.66V28.6595ZM0 258H86V172H0V258ZM14.3319 186.332H71.6638V243.664H14.3319V186.332ZM28.6638 200.664H57.3319V229.332H28.6638V200.664ZM243.664 229.332H257.996V258H229.328V215H243.66V229.332H243.664ZM243.664 186.332H257.996V200.664H243.664V186.332ZM243.664 172V186.332H229.332V172H243.664ZM100.332 200.668H114.664V258H100.332V200.668ZM43 100.332V129H14.3319V114.668H0V100.336H43V100.332ZM100.332 57.3319H114.664V71.6638H100.332V57.3319ZM143.332 14.3319V43H129V0H157.668V14.3319H143.336H143.332ZM100.332 14.3319H114.664V28.6638H100.332V14.3319ZM243.664 129H257.996V157.668H229.328V143.336H243.66V129.004L243.664 129ZM229.332 100.332V114.664H200.664V143.332H171.996V129H186.328V100.332H229.328H229.332ZM129 157.664H114.668V143.332H100.336V129H129.004V157.668L129 157.664ZM215 186.332H229.332V200.664H215V186.332ZM243.668 114.664V128.996H229.336V114.664H243.668ZM114.668 157.664V171.996H100.336V157.664H114.668ZM200.668 229.332H215V258H186.332V229.332H200.664H200.668ZM157.668 229.332H172V243.664H157.668V257.996H129V243.664H143.332V229.332H157.664H157.668ZM157.668 215V200.668H186.336V215H157.668ZM157.668 143.332H172V186.332H157.668V200.664H143.336V214.996H129.004V186.328H114.672V171.996H157.672V157.664H143.34V143.332H157.672H157.668ZM28.6681 143.332V157.664H14.3362V143.332H28.6681ZM200.668 200.664H186.336V186.332H200.668V200.664ZM215 171.996H186.332V157.664H215V171.996ZM71.6681 100.332H86V114.664H71.6681V128.996H86V157.664H71.6681V143.332H57.3362V157.664H43.0043V128.996H57.3362V100.328H71.6681V100.332ZM114.668 100.332V71.6638H157.668V114.664H129V100.332H143.332V86H129V100.332H114.668ZM114.668 43H129V57.3319H114.668V43ZM100.336 100.332H114.668V114.664H100.336V100.332ZM143.336 57.3319V43H157.668V57.3319H143.336Z" fill="#1C1C1E"/>
</svg>
