<svg width="40" height="40" viewBox="0 0 40 40" fill="none" xmlns="http://www.w3.org/2000/svg">
<path d="M8.33337 19.9999C8.33337 13.5566 13.5567 8.33325 20 8.33325C23.2645 8.33325 26.2158 9.67403 28.3334 11.8349" stroke="#1C1C1E" stroke-width="2.66667" stroke-linecap="round" stroke-linejoin="round"/>
<path d="M32.6667 8.598V15.8666C32.6667 15.9403 32.607 16 32.5334 16H25.2647C25.2257 16 25.2036 15.9895 25.1888 15.9792C25.1711 15.9666 25.1533 15.9459 25.1416 15.9177C25.1299 15.8894 25.1278 15.8621 25.1315 15.8407C25.1346 15.823 25.1428 15.8 25.1705 15.7723L24.7095 15.3114L25.1705 15.7723L32.4391 8.50372L31.9782 8.04279L32.4391 8.50372C32.4667 8.47608 32.4897 8.46782 32.5075 8.46474C32.5289 8.46103 32.5562 8.46312 32.5844 8.47481C32.6126 8.48651 32.6334 8.50432 32.6459 8.52208C32.6563 8.53682 32.6667 8.55892 32.6667 8.598Z" fill="#1C1C1E" stroke="#1C1C1E" stroke-width="1.33333"/>
<path d="M31.6667 21.6667C31.6667 28.11 26.4434 33.3334 20.0001 33.3334C16.7356 33.3334 13.7843 31.9926 11.6667 29.8317" stroke="#1C1C1E" stroke-width="2.66667" stroke-linecap="round" stroke-linejoin="round"/>
<path d="M7.33342 33.0686V25.8C7.33342 25.7264 7.39311 25.6667 7.46675 25.6667H14.7354C14.7745 25.6667 14.7966 25.6771 14.8113 25.6875C14.8291 25.7 14.8469 25.7207 14.8586 25.749C14.8703 25.7772 14.8723 25.8045 14.8686 25.8259C14.8656 25.8437 14.8573 25.8666 14.8297 25.8943L15.2906 26.3552L14.8297 25.8943L7.56103 33.1629L8.02196 33.6238L7.56103 33.1629C7.5334 33.1905 7.51041 33.1988 7.49264 33.2019C7.47123 33.2056 7.44395 33.2035 7.41572 33.1918C7.38749 33.1801 7.36673 33.1623 7.35422 33.1445C7.34383 33.1298 7.33342 33.1077 7.33342 33.0686Z" fill="#1C1C1E" stroke="#1C1C1E" stroke-width="1.33333"/>
</svg>
